<svg width="45" height="45" viewBox="0 0 45 45" fill="none" xmlns="http://www.w3.org/2000/svg">
<rect width="45" height="45" rx="22.5" fill="#30202B"/>
<path d="M18.5 17.3201V27.6801C18.5 28.4701 19.37 28.9501 20.04 28.5201L28.18 23.3401C28.3225 23.2499 28.4399 23.1251 28.5212 22.9774C28.6026 22.8296 28.6452 22.6637 28.6452 22.4951C28.6452 22.3264 28.6026 22.1605 28.5212 22.0128C28.4399 21.865 28.3225 21.7403 28.18 21.6501L20.04 16.4801C19.8892 16.3825 19.7148 16.3275 19.5353 16.3208C19.3558 16.3141 19.1778 16.3559 19.0201 16.4419C18.8624 16.5279 18.7309 16.6549 18.6393 16.8095C18.5478 16.964 18.4996 17.1404 18.5 17.3201Z" fill="white"/>
</svg>
