<svg width="17" height="17" viewBox="0 0 17 17" fill="none" xmlns="http://www.w3.org/2000/svg">
<g clip-path="url(#clip0_106_293)">
<path d="M12.5384 11.0982C14.6939 9.99239 16.328 9.14977 16.4688 9.08426C16.9194 8.8604 17.3847 8.26788 16.4688 7.80764C16.1731 7.66289 14.581 6.84652 12.5384 5.7937L9.70667 8.46562L12.5384 11.0981V11.0982Z" fill="#FFD900"/>
<path d="M9.70663 8.46558L0.690186 16.9558C0.901822 16.982 1.14075 16.9296 1.42245 16.7849C2.01386 16.4824 8.28341 13.2835 12.5383 11.0988L9.70663 8.46558Z" fill="#F43249"/>
<path d="M9.70672 8.4655L12.5384 5.80673C12.5384 5.80673 2.05672 0.462218 1.42254 0.146725C1.18361 0.0145101 0.915863 -0.0247636 0.67627 0.0145101L9.70672 8.4655Z" fill="#00EE76"/>
<path d="M9.70667 8.46539L0.676215 0.0144043C0.309719 0.0935722 0 0.396098 0 1.0148V15.9553C0 16.5215 0.23966 16.9294 0.690227 16.9687L9.70667 8.46539Z" fill="#00D3FF"/>
</g>
<defs>
<clipPath id="clip0_106_293">
<rect width="17" height="17" fill="white"/>
</clipPath>
</defs>
</svg>
